<svg width="37" height="37" viewBox="0 0 37 37" fill="none" xmlns="http://www.w3.org/2000/svg">
<path d="M11.0852 0.0605469C5.27486 0.0605469 0.5 4.82901 0.5 10.6458V25.4753C0.5 31.2857 5.26847 36.0605 11.0852 36.0605H25.9148C31.7251 36.0605 36.5 31.2921 36.5 25.4753V10.6458C36.5 4.8354 31.7315 0.0605469 25.9148 0.0605469H11.0852ZM11.0852 3.33327H25.9148C29.9609 3.33327 33.2273 6.59961 33.2273 10.6458V25.4753C33.2273 29.5215 29.9609 32.7878 25.9148 32.7878H11.0852C7.03906 32.7878 3.77273 29.5215 3.77273 25.4753V10.6458C3.77273 6.59961 7.03906 3.33327 11.0852 3.33327ZM28.1648 6.91282C27.3402 6.91282 26.6818 7.5712 26.6818 8.39577C26.6818 9.22035 27.3402 9.87873 28.1648 9.87873C28.9893 9.87873 29.6477 9.22035 29.6477 8.39577C29.6477 7.5712 28.9893 6.91282 28.1648 6.91282ZM18.5 8.24236C13.0987 8.24236 8.68182 12.6593 8.68182 18.0605C8.68182 23.4618 13.0987 27.8787 18.5 27.8787C23.9013 27.8787 28.3182 23.4618 28.3182 18.0605C28.3182 12.6593 23.9013 8.24236 18.5 8.24236ZM18.5 11.5151C22.1371 11.5151 25.0455 14.4235 25.0455 18.0605C25.0455 21.6976 22.1371 24.606 18.5 24.606C14.8629 24.606 11.9545 21.6976 11.9545 18.0605C11.9545 14.4235 14.8629 11.5151 18.5 11.5151Z" fill="white"/>
<path d="M11.0852 0.0605469C5.27486 0.0605469 0.5 4.82901 0.5 10.6458V25.4753C0.5 31.2857 5.26847 36.0605 11.0852 36.0605H25.9148C31.7251 36.0605 36.5 31.2921 36.5 25.4753V10.6458C36.5 4.8354 31.7315 0.0605469 25.9148 0.0605469H11.0852ZM11.0852 3.33327H25.9148C29.9609 3.33327 33.2273 6.59961 33.2273 10.6458V25.4753C33.2273 29.5215 29.9609 32.7878 25.9148 32.7878H11.0852C7.03906 32.7878 3.77273 29.5215 3.77273 25.4753V10.6458C3.77273 6.59961 7.03906 3.33327 11.0852 3.33327ZM28.1648 6.91282C27.3402 6.91282 26.6818 7.5712 26.6818 8.39577C26.6818 9.22035 27.3402 9.87873 28.1648 9.87873C28.9893 9.87873 29.6477 9.22035 29.6477 8.39577C29.6477 7.5712 28.9893 6.91282 28.1648 6.91282ZM18.5 8.24236C13.0987 8.24236 8.68182 12.6593 8.68182 18.0605C8.68182 23.4618 13.0987 27.8787 18.5 27.8787C23.9013 27.8787 28.3182 23.4618 28.3182 18.0605C28.3182 12.6593 23.9013 8.24236 18.5 8.24236ZM18.5 11.5151C22.1371 11.5151 25.0455 14.4235 25.0455 18.0605C25.0455 21.6976 22.1371 24.606 18.5 24.606C14.8629 24.606 11.9545 21.6976 11.9545 18.0605C11.9545 14.4235 14.8629 11.5151 18.5 11.5151Z" stroke="black"/>
</svg>
