<svg width="37" height="37" viewBox="0 0 37 37" fill="none" xmlns="http://www.w3.org/2000/svg">
<path d="M18.5 0.0605469C18.5 0.0605469 7.24198 0.0604763 4.43398 1.00098C2.88418 1.51848 1.66634 3.04303 1.25234 4.97803C0.499944 8.48803 0.5 18.0605 0.5 18.0605C0.5 18.0605 0.499944 27.6331 1.25234 31.1431C1.66634 33.0803 2.88598 34.6026 4.43398 35.1201C7.24198 36.0606 18.5 36.0605 18.5 36.0605C18.5 36.0605 29.758 36.0606 32.566 35.1201C34.114 34.6026 35.3337 33.0781 35.7477 31.1431C36.5001 27.6331 36.5 18.0605 36.5 18.0605C36.5 18.0605 36.5001 8.48803 35.7477 4.97803C35.3337 3.04303 34.114 1.51848 32.566 1.00098C29.758 0.0604763 18.5 0.0605469 18.5 0.0605469ZM18.5 4.56055C23.6876 4.56055 30.1836 4.86117 31.6344 5.34717C31.9386 5.44842 32.1879 5.76008 32.2707 6.14258C32.7045 8.16308 32.9 14.33 32.9 18.0605C32.9 21.791 32.7045 27.9558 32.2707 29.9785C32.1897 30.3588 31.9404 30.6704 31.6344 30.7739C30.1854 31.2599 23.6876 31.5605 18.5 31.5605C13.3142 31.5605 6.81822 31.2599 5.36562 30.7739C5.06142 30.6727 4.8121 30.361 4.7293 29.9785C4.2955 27.958 4.1 21.791 4.1 18.0605C4.1 14.33 4.2955 8.16318 4.7293 6.13818C4.8103 5.76018 5.05962 5.44842 5.36562 5.34717C6.81462 4.86117 13.3124 4.56055 18.5 4.56055ZM14.9 10.2646V25.8564L25.7 18.0605L14.9 10.2646Z" fill="white"/>
</svg>
